<svg width="40" height="40" viewBox="0 0 40 40" fill="none" xmlns="http://www.w3.org/2000/svg">
<path d="M18.3333 25H21.6667V28.3333H18.3333V25ZM18.3333 11.6666H21.6667V21.6666H18.3333V11.6666ZM19.9833 3.33331C10.7833 3.33331 3.33334 10.8 3.33334 20C3.33334 29.2 10.7833 36.6666 19.9833 36.6666C29.2 36.6666 36.6667 29.2 36.6667 20C36.6667 10.8 29.2 3.33331 19.9833 3.33331ZM20 33.3333C12.6333 33.3333 6.66668 27.3666 6.66668 20C6.66668 12.6333 12.6333 6.66665 20 6.66665C27.3667 6.66665 33.3333 12.6333 33.3333 20C33.3333 27.3666 27.3667 33.3333 20 33.3333Z" fill="#FF0000"/>
</svg>
