<svg width="80" height="80" viewBox="0 0 80 80" fill="none" xmlns="http://www.w3.org/2000/svg">
<rect width="80" height="80" fill="#B50938"/>
<path d="M12.846 44.83H8.59L7.806 47H6.462L9.99 37.298H11.46L14.974 47H13.63L12.846 44.83ZM12.482 43.794L10.718 38.866L8.954 43.794H12.482ZM21.6496 47L19.3256 43.01H17.7856V47H16.5116V37.242H19.6616C20.3989 37.242 21.0196 37.368 21.5236 37.62C22.0369 37.872 22.4196 38.2127 22.6716 38.642C22.9236 39.0713 23.0496 39.5613 23.0496 40.112C23.0496 40.784 22.8536 41.3767 22.4616 41.89C22.0789 42.4033 21.5003 42.744 20.7256 42.912L23.1756 47H21.6496ZM17.7856 41.988H19.6616C20.3523 41.988 20.8703 41.82 21.2156 41.484C21.5609 41.1387 21.7336 40.6813 21.7336 40.112C21.7336 39.5333 21.5609 39.0853 21.2156 38.768C20.8796 38.4507 20.3616 38.292 19.6616 38.292H17.7856V41.988ZM31.0352 37.242V38.278H28.3752V47H27.1012V38.278H24.4272V37.242H31.0352ZM8.352 52.242V62H7.078V52.242H8.352ZM18.1953 62H16.9213L11.7973 54.23V62H10.5233V52.228H11.7973L16.9213 59.984V52.228H18.1953V62ZM23.4611 62.098C22.8171 62.098 22.2384 61.986 21.7251 61.762C21.2211 61.5287 20.8244 61.2113 20.5351 60.81C20.2457 60.3993 20.0964 59.928 20.0871 59.396H21.4451C21.4917 59.8533 21.6784 60.2407 22.0051 60.558C22.3411 60.866 22.8264 61.02 23.4611 61.02C24.0677 61.02 24.5437 60.8707 24.8891 60.572C25.2437 60.264 25.4211 59.872 25.4211 59.396C25.4211 59.0227 25.3184 58.7193 25.1131 58.486C24.9077 58.2527 24.6511 58.0753 24.3431 57.954C24.0351 57.8327 23.6197 57.702 23.0971 57.562C22.4531 57.394 21.9351 57.226 21.5431 57.058C21.1604 56.89 20.8291 56.6287 20.5491 56.274C20.2784 55.91 20.1431 55.4247 20.1431 54.818C20.1431 54.286 20.2784 53.8147 20.5491 53.404C20.8197 52.9933 21.1977 52.676 21.6831 52.452C22.1777 52.228 22.7424 52.116 23.3771 52.116C24.2917 52.116 25.0384 52.3447 25.6171 52.802C26.2051 53.2593 26.5364 53.866 26.6111 54.622H25.2111C25.1644 54.2487 24.9684 53.922 24.6231 53.642C24.2777 53.3527 23.8204 53.208 23.2511 53.208C22.7191 53.208 22.2851 53.348 21.9491 53.628C21.6131 53.8987 21.4451 54.2813 21.4451 54.776C21.4451 55.1307 21.5431 55.42 21.7391 55.644C21.9444 55.868 22.1917 56.0407 22.4811 56.162C22.7797 56.274 23.1951 56.4047 23.7271 56.554C24.3711 56.7313 24.8891 56.9087 25.2811 57.086C25.6731 57.254 26.0091 57.52 26.2891 57.884C26.5691 58.2387 26.7091 58.724 26.7091 59.34C26.7091 59.816 26.5831 60.264 26.3311 60.684C26.0791 61.104 25.7057 61.4447 25.2111 61.706C24.7164 61.9673 24.1331 62.098 23.4611 62.098ZM34.5899 52.242V53.278H31.9299V62H30.6559V53.278H27.9819V52.242H34.5899ZM37.4321 52.242V62H36.1581V52.242H37.4321ZM45.6094 52.242V53.278H42.9494V62H41.6754V53.278H39.0014V52.242H45.6094ZM55.2416 52.242L51.5596 62H50.0896L46.4076 52.242H47.7656L50.8316 60.656L53.8976 52.242H55.2416ZM62.6445 52.242V53.278H59.9845V62H58.7105V53.278H56.0365V52.242H62.6445ZM65.4868 53.278V56.54H69.0428V57.59H65.4868V60.95H69.4628V62H64.2128V52.228H69.4628V53.278H65.4868ZM6.602 72.114C6.602 71.162 6.81667 70.308 7.246 69.552C7.67533 68.7867 8.25867 68.1893 8.996 67.76C9.74267 67.3307 10.5687 67.116 11.474 67.116C12.538 67.116 13.4667 67.3727 14.26 67.886C15.0533 68.3993 15.632 69.1273 15.996 70.07H14.47C14.1993 69.482 13.8073 69.0293 13.294 68.712C12.79 68.3947 12.1833 68.236 11.474 68.236C10.7927 68.236 10.1813 68.3947 9.64 68.712C9.09867 69.0293 8.674 69.482 8.366 70.07C8.058 70.6487 7.904 71.33 7.904 72.114C7.904 72.8887 8.058 73.57 8.366 74.158C8.674 74.7367 9.09867 75.1847 9.64 75.502C10.1813 75.8193 10.7927 75.978 11.474 75.978C12.1833 75.978 12.79 75.824 13.294 75.516C13.8073 75.1987 14.1993 74.746 14.47 74.158H15.996C15.632 75.0913 15.0533 75.8147 14.26 76.328C13.4667 76.832 12.538 77.084 11.474 77.084C10.5687 77.084 9.74267 76.874 8.996 76.454C8.25867 76.0247 7.67533 75.432 7.246 74.676C6.81667 73.92 6.602 73.066 6.602 72.114ZM25.4105 67.242V77H24.1365V72.576H19.1665V77H17.8925V67.242H19.1665V71.526H24.1365V67.242H25.4105ZM28.8598 67.242V77H27.5858V67.242H28.8598ZM30.5551 72.114C30.5551 71.162 30.7698 70.308 31.1991 69.552C31.6285 68.7867 32.2118 68.1893 32.9491 67.76C33.6958 67.3307 34.5218 67.116 35.4271 67.116C36.4911 67.116 37.4198 67.3727 38.2131 67.886C39.0065 68.3993 39.5851 69.1273 39.9491 70.07H38.4231C38.1525 69.482 37.7605 69.0293 37.2471 68.712C36.7431 68.3947 36.1365 68.236 35.4271 68.236C34.7458 68.236 34.1345 68.3947 33.5931 68.712C33.0518 69.0293 32.6271 69.482 32.3191 70.07C32.0111 70.6487 31.8571 71.33 31.8571 72.114C31.8571 72.8887 32.0111 73.57 32.3191 74.158C32.6271 74.7367 33.0518 75.1847 33.5931 75.502C34.1345 75.8193 34.7458 75.978 35.4271 75.978C36.1365 75.978 36.7431 75.824 37.2471 75.516C37.7605 75.1987 38.1525 74.746 38.4231 74.158H39.9491C39.5851 75.0913 39.0065 75.8147 38.2131 76.328C37.4198 76.832 36.4911 77.084 35.4271 77.084C34.5218 77.084 33.6958 76.874 32.9491 76.454C32.2118 76.0247 31.6285 75.432 31.1991 74.676C30.7698 73.92 30.5551 73.066 30.5551 72.114ZM47.6136 74.83H43.3576L42.5736 77H41.2296L44.7576 67.298H46.2276L49.7416 77H48.3976L47.6136 74.83ZM47.2496 73.794L45.4856 68.866L43.7216 73.794H47.2496ZM58.6712 70.07C58.4005 69.5007 58.0085 69.062 57.4952 68.754C56.9818 68.4367 56.3845 68.278 55.7032 68.278C55.0218 68.278 54.4058 68.4367 53.8552 68.754C53.3138 69.062 52.8845 69.51 52.5672 70.098C52.2592 70.6767 52.1052 71.3487 52.1052 72.114C52.1052 72.8793 52.2592 73.5513 52.5672 74.13C52.8845 74.7087 53.3138 75.1567 53.8552 75.474C54.4058 75.782 55.0218 75.936 55.7032 75.936C56.6552 75.936 57.4392 75.6513 58.0552 75.082C58.6712 74.5127 59.0305 73.7427 59.1332 72.772H55.2412V71.736H60.4912V72.716C60.4165 73.5187 60.1645 74.256 59.7352 74.928C59.3058 75.5907 58.7412 76.118 58.0412 76.51C57.3412 76.8927 56.5618 77.084 55.7032 77.084C54.7978 77.084 53.9718 76.874 53.2252 76.454C52.4785 76.0247 51.8858 75.432 51.4472 74.676C51.0178 73.92 50.8032 73.066 50.8032 72.114C50.8032 71.162 51.0178 70.308 51.4472 69.552C51.8858 68.7867 52.4785 68.194 53.2252 67.774C53.9718 67.3447 54.7978 67.13 55.7032 67.13C56.7392 67.13 57.6538 67.3867 58.4472 67.9C59.2498 68.4133 59.8332 69.1367 60.1972 70.07H58.6712ZM66.5997 77.098C65.6943 77.098 64.8683 76.888 64.1217 76.468C63.375 76.0387 62.7823 75.446 62.3437 74.69C61.9143 73.9247 61.6997 73.066 61.6997 72.114C61.6997 71.162 61.9143 70.308 62.3437 69.552C62.7823 68.7867 63.375 68.194 64.1217 67.774C64.8683 67.3447 65.6943 67.13 66.5997 67.13C67.5143 67.13 68.345 67.3447 69.0917 67.774C69.8383 68.194 70.4263 68.782 70.8557 69.538C71.285 70.294 71.4997 71.1527 71.4997 72.114C71.4997 73.0753 71.285 73.934 70.8557 74.69C70.4263 75.446 69.8383 76.0387 69.0917 76.468C68.345 76.888 67.5143 77.098 66.5997 77.098ZM66.5997 75.992C67.281 75.992 67.8923 75.8333 68.4337 75.516C68.9843 75.1987 69.4137 74.746 69.7217 74.158C70.039 73.57 70.1977 72.8887 70.1977 72.114C70.1977 71.33 70.039 70.6487 69.7217 70.07C69.4137 69.482 68.989 69.0293 68.4477 68.712C67.9063 68.3947 67.2903 68.236 66.5997 68.236C65.909 68.236 65.293 68.3947 64.7517 68.712C64.2103 69.0293 63.781 69.482 63.4637 70.07C63.1557 70.6487 63.0017 71.33 63.0017 72.114C63.0017 72.8887 63.1557 73.57 63.4637 74.158C63.781 74.746 64.2103 75.1987 64.7517 75.516C65.3023 75.8333 65.9183 75.992 66.5997 75.992Z" fill="white"/>
</svg>
